M48
; DRILL file {KiCad 9.0.3} date 2025-08-10T10:47:52+0800
; FORMAT={-:-/ absolute / metric / decimal}
; #@! TF.CreationDate,2025-08-10T10:47:52+08:00
; #@! TF.GenerationSoftware,Kicad,Pcbnew,9.0.3
; #@! TF.FileFunction,Plated,1,2,PTH
FMAT,2
METRIC
; #@! TA.AperFunction,Plated,PTH,ComponentDrill
T1C0.800
; #@! TA.AperFunction,Plated,PTH,ComponentDrill
T2C0.889
; #@! TA.AperFunction,Plated,PTH,ComponentDrill
T3C1.000
; #@! TA.AperFunction,Plated,PTH,ComponentDrill
T4C1.500
%
G90
G05
T1
X99.7Y-127.19
X99.7Y-134.81
X99.7Y-146.19
X99.7Y-153.81
X99.8Y-108.109
X99.8Y-115.729
X118.8Y-108.09
X118.8Y-115.71
X118.8Y-127.09
X118.8Y-134.71
X118.8Y-146.0
X118.8Y-153.62
X137.8Y-127.19
X137.8Y-134.81
X137.8Y-146.19
X137.8Y-153.81
T2
X120.58Y-82.68
X120.58Y-85.22
X120.58Y-87.76
X120.58Y-90.3
X120.58Y-92.84
X120.58Y-95.38
X120.58Y-97.92
X135.82Y-82.68
X135.82Y-85.22
X135.82Y-87.76
X135.82Y-90.3
X135.82Y-92.84
X135.82Y-95.38
X135.82Y-97.92
T3
X140.2Y-108.6
X140.2Y-111.1
X140.2Y-113.6
X154.7Y-108.6
X154.7Y-113.6
T4
X105.41Y-128.429
X105.41Y-147.479
X105.493Y-109.379
X111.76Y-125.889
X111.76Y-144.939
X111.843Y-106.839
X124.46Y-109.379
X124.46Y-128.429
X124.46Y-147.479
X130.81Y-106.839
X130.81Y-125.889
X130.81Y-144.939
X143.51Y-128.429
X143.51Y-147.479
X149.86Y-125.889
X149.86Y-144.939
T4
G00X147.05Y-105.5
M15
G01X148.35Y-105.5
M16
G05
G00X147.05Y-116.7
M15
G01X148.35Y-116.7
M16
G05
M30
