%TF.GenerationSoftware,KiCad,Pcbnew,9.0.3*%
%TF.CreationDate,2025-08-10T10:47:53+08:00*%
%TF.ProjectId,HackPad Schematic,4861636b-5061-4642-9053-6368656d6174,rev?*%
%TF.SameCoordinates,Original*%
%TF.FileFunction,Legend,Top*%
%TF.FilePolarity,Positive*%
%FSLAX46Y46*%
G04 Gerber Fmt 4.6, Leading zero omitted, Abs format (unit mm)*
G04 Created by KiCad (PCBNEW 9.0.3) date 2025-08-10 10:47:53*
%MOMM*%
%LPD*%
G01*
G04 APERTURE LIST*
%ADD10C,0.100000*%
%ADD11C,0.150000*%
%ADD12C,0.101600*%
%ADD13C,0.120000*%
%ADD14C,0.127000*%
%ADD15C,0.504000*%
G04 APERTURE END LIST*
D10*
X124608646Y-91572419D02*
X125275312Y-92572419D01*
X125275312Y-91572419D02*
X124608646Y-92572419D01*
X125656265Y-92572419D02*
X125656265Y-91572419D01*
X126084836Y-92286704D02*
X126561026Y-92286704D01*
X125989598Y-92572419D02*
X126322931Y-91572419D01*
X126322931Y-91572419D02*
X126656264Y-92572419D01*
X127180074Y-91572419D02*
X127370550Y-91572419D01*
X127370550Y-91572419D02*
X127465788Y-91620038D01*
X127465788Y-91620038D02*
X127561026Y-91715276D01*
X127561026Y-91715276D02*
X127608645Y-91905752D01*
X127608645Y-91905752D02*
X127608645Y-92239085D01*
X127608645Y-92239085D02*
X127561026Y-92429561D01*
X127561026Y-92429561D02*
X127465788Y-92524800D01*
X127465788Y-92524800D02*
X127370550Y-92572419D01*
X127370550Y-92572419D02*
X127180074Y-92572419D01*
X127180074Y-92572419D02*
X127084836Y-92524800D01*
X127084836Y-92524800D02*
X126989598Y-92429561D01*
X126989598Y-92429561D02*
X126941979Y-92239085D01*
X126941979Y-92239085D02*
X126941979Y-91905752D01*
X126941979Y-91905752D02*
X126989598Y-91715276D01*
X126989598Y-91715276D02*
X127084836Y-91620038D01*
X127084836Y-91620038D02*
X127180074Y-91572419D01*
X128799122Y-92572419D02*
X128799122Y-91572419D01*
X128799122Y-92048609D02*
X129370550Y-92048609D01*
X129370550Y-92572419D02*
X129370550Y-91572419D01*
X129846741Y-92048609D02*
X130180074Y-92048609D01*
X130322931Y-92572419D02*
X129846741Y-92572419D01*
X129846741Y-92572419D02*
X129846741Y-91572419D01*
X129846741Y-91572419D02*
X130322931Y-91572419D01*
X131322931Y-92572419D02*
X130989598Y-92096228D01*
X130751503Y-92572419D02*
X130751503Y-91572419D01*
X130751503Y-91572419D02*
X131132455Y-91572419D01*
X131132455Y-91572419D02*
X131227693Y-91620038D01*
X131227693Y-91620038D02*
X131275312Y-91667657D01*
X131275312Y-91667657D02*
X131322931Y-91762895D01*
X131322931Y-91762895D02*
X131322931Y-91905752D01*
X131322931Y-91905752D02*
X131275312Y-92000990D01*
X131275312Y-92000990D02*
X131227693Y-92048609D01*
X131227693Y-92048609D02*
X131132455Y-92096228D01*
X131132455Y-92096228D02*
X130751503Y-92096228D01*
X131751503Y-92048609D02*
X132084836Y-92048609D01*
X132227693Y-92572419D02*
X131751503Y-92572419D01*
X131751503Y-92572419D02*
X131751503Y-91572419D01*
X131751503Y-91572419D02*
X132227693Y-91572419D01*
X145461027Y-82272419D02*
X146032455Y-82272419D01*
X145746741Y-83272419D02*
X145746741Y-82272419D01*
X146365789Y-83272419D02*
X146365789Y-82272419D01*
X146365789Y-82748609D02*
X146937217Y-82748609D01*
X146937217Y-83272419D02*
X146937217Y-82272419D01*
X147413408Y-82748609D02*
X147746741Y-82748609D01*
X147889598Y-83272419D02*
X147413408Y-83272419D01*
X147413408Y-83272419D02*
X147413408Y-82272419D01*
X147413408Y-82272419D02*
X147889598Y-82272419D01*
X149080075Y-83272419D02*
X149080075Y-82272419D01*
X149080075Y-82272419D02*
X149318170Y-82272419D01*
X149318170Y-82272419D02*
X149461027Y-82320038D01*
X149461027Y-82320038D02*
X149556265Y-82415276D01*
X149556265Y-82415276D02*
X149603884Y-82510514D01*
X149603884Y-82510514D02*
X149651503Y-82700990D01*
X149651503Y-82700990D02*
X149651503Y-82843847D01*
X149651503Y-82843847D02*
X149603884Y-83034323D01*
X149603884Y-83034323D02*
X149556265Y-83129561D01*
X149556265Y-83129561D02*
X149461027Y-83224800D01*
X149461027Y-83224800D02*
X149318170Y-83272419D01*
X149318170Y-83272419D02*
X149080075Y-83272419D01*
X150270551Y-82272419D02*
X150461027Y-82272419D01*
X150461027Y-82272419D02*
X150556265Y-82320038D01*
X150556265Y-82320038D02*
X150651503Y-82415276D01*
X150651503Y-82415276D02*
X150699122Y-82605752D01*
X150699122Y-82605752D02*
X150699122Y-82939085D01*
X150699122Y-82939085D02*
X150651503Y-83129561D01*
X150651503Y-83129561D02*
X150556265Y-83224800D01*
X150556265Y-83224800D02*
X150461027Y-83272419D01*
X150461027Y-83272419D02*
X150270551Y-83272419D01*
X150270551Y-83272419D02*
X150175313Y-83224800D01*
X150175313Y-83224800D02*
X150080075Y-83129561D01*
X150080075Y-83129561D02*
X150032456Y-82939085D01*
X150032456Y-82939085D02*
X150032456Y-82605752D01*
X150032456Y-82605752D02*
X150080075Y-82415276D01*
X150080075Y-82415276D02*
X150175313Y-82320038D01*
X150175313Y-82320038D02*
X150270551Y-82272419D01*
X151127694Y-82272419D02*
X151127694Y-83081942D01*
X151127694Y-83081942D02*
X151175313Y-83177180D01*
X151175313Y-83177180D02*
X151222932Y-83224800D01*
X151222932Y-83224800D02*
X151318170Y-83272419D01*
X151318170Y-83272419D02*
X151508646Y-83272419D01*
X151508646Y-83272419D02*
X151603884Y-83224800D01*
X151603884Y-83224800D02*
X151651503Y-83177180D01*
X151651503Y-83177180D02*
X151699122Y-83081942D01*
X151699122Y-83081942D02*
X151699122Y-82272419D01*
X152699122Y-82320038D02*
X152603884Y-82272419D01*
X152603884Y-82272419D02*
X152461027Y-82272419D01*
X152461027Y-82272419D02*
X152318170Y-82320038D01*
X152318170Y-82320038D02*
X152222932Y-82415276D01*
X152222932Y-82415276D02*
X152175313Y-82510514D01*
X152175313Y-82510514D02*
X152127694Y-82700990D01*
X152127694Y-82700990D02*
X152127694Y-82843847D01*
X152127694Y-82843847D02*
X152175313Y-83034323D01*
X152175313Y-83034323D02*
X152222932Y-83129561D01*
X152222932Y-83129561D02*
X152318170Y-83224800D01*
X152318170Y-83224800D02*
X152461027Y-83272419D01*
X152461027Y-83272419D02*
X152556265Y-83272419D01*
X152556265Y-83272419D02*
X152699122Y-83224800D01*
X152699122Y-83224800D02*
X152746741Y-83177180D01*
X152746741Y-83177180D02*
X152746741Y-82843847D01*
X152746741Y-82843847D02*
X152556265Y-82843847D01*
X153175313Y-83272419D02*
X153175313Y-82272419D01*
X153175313Y-82748609D02*
X153746741Y-82748609D01*
X153746741Y-83272419D02*
X153746741Y-82272419D01*
X154222932Y-83272419D02*
X154222932Y-82272419D01*
X154222932Y-82272419D02*
X154603884Y-82272419D01*
X154603884Y-82272419D02*
X154699122Y-82320038D01*
X154699122Y-82320038D02*
X154746741Y-82367657D01*
X154746741Y-82367657D02*
X154794360Y-82462895D01*
X154794360Y-82462895D02*
X154794360Y-82605752D01*
X154794360Y-82605752D02*
X154746741Y-82700990D01*
X154746741Y-82700990D02*
X154699122Y-82748609D01*
X154699122Y-82748609D02*
X154603884Y-82796228D01*
X154603884Y-82796228D02*
X154222932Y-82796228D01*
X155175313Y-82986704D02*
X155651503Y-82986704D01*
X155080075Y-83272419D02*
X155413408Y-82272419D01*
X155413408Y-82272419D02*
X155746741Y-83272419D01*
X156080075Y-83272419D02*
X156080075Y-82272419D01*
X156080075Y-82272419D02*
X156318170Y-82272419D01*
X156318170Y-82272419D02*
X156461027Y-82320038D01*
X156461027Y-82320038D02*
X156556265Y-82415276D01*
X156556265Y-82415276D02*
X156603884Y-82510514D01*
X156603884Y-82510514D02*
X156651503Y-82700990D01*
X156651503Y-82700990D02*
X156651503Y-82843847D01*
X156651503Y-82843847D02*
X156603884Y-83034323D01*
X156603884Y-83034323D02*
X156556265Y-83129561D01*
X156556265Y-83129561D02*
X156461027Y-83224800D01*
X156461027Y-83224800D02*
X156318170Y-83272419D01*
X156318170Y-83272419D02*
X156080075Y-83272419D01*
D11*
X117134819Y-112638094D02*
X116134819Y-112638094D01*
X116134819Y-112638094D02*
X116134819Y-112399999D01*
X116134819Y-112399999D02*
X116182438Y-112257142D01*
X116182438Y-112257142D02*
X116277676Y-112161904D01*
X116277676Y-112161904D02*
X116372914Y-112114285D01*
X116372914Y-112114285D02*
X116563390Y-112066666D01*
X116563390Y-112066666D02*
X116706247Y-112066666D01*
X116706247Y-112066666D02*
X116896723Y-112114285D01*
X116896723Y-112114285D02*
X116991961Y-112161904D01*
X116991961Y-112161904D02*
X117087200Y-112257142D01*
X117087200Y-112257142D02*
X117134819Y-112399999D01*
X117134819Y-112399999D02*
X117134819Y-112638094D01*
X116230057Y-111685713D02*
X116182438Y-111638094D01*
X116182438Y-111638094D02*
X116134819Y-111542856D01*
X116134819Y-111542856D02*
X116134819Y-111304761D01*
X116134819Y-111304761D02*
X116182438Y-111209523D01*
X116182438Y-111209523D02*
X116230057Y-111161904D01*
X116230057Y-111161904D02*
X116325295Y-111114285D01*
X116325295Y-111114285D02*
X116420533Y-111114285D01*
X116420533Y-111114285D02*
X116563390Y-111161904D01*
X116563390Y-111161904D02*
X117134819Y-111733332D01*
X117134819Y-111733332D02*
X117134819Y-111114285D01*
X117454819Y-115971904D02*
X116454819Y-115971904D01*
X117454819Y-115400476D02*
X116883390Y-115829047D01*
X116454819Y-115400476D02*
X117026247Y-115971904D01*
X147585714Y-87904819D02*
X147585714Y-86904819D01*
X147585714Y-86904819D02*
X147823809Y-86904819D01*
X147823809Y-86904819D02*
X147966666Y-86952438D01*
X147966666Y-86952438D02*
X148061904Y-87047676D01*
X148061904Y-87047676D02*
X148109523Y-87142914D01*
X148109523Y-87142914D02*
X148157142Y-87333390D01*
X148157142Y-87333390D02*
X148157142Y-87476247D01*
X148157142Y-87476247D02*
X148109523Y-87666723D01*
X148109523Y-87666723D02*
X148061904Y-87761961D01*
X148061904Y-87761961D02*
X147966666Y-87857200D01*
X147966666Y-87857200D02*
X147823809Y-87904819D01*
X147823809Y-87904819D02*
X147585714Y-87904819D01*
X149109523Y-87904819D02*
X148538095Y-87904819D01*
X148823809Y-87904819D02*
X148823809Y-86904819D01*
X148823809Y-86904819D02*
X148728571Y-87047676D01*
X148728571Y-87047676D02*
X148633333Y-87142914D01*
X148633333Y-87142914D02*
X148538095Y-87190533D01*
X149728571Y-86904819D02*
X149823809Y-86904819D01*
X149823809Y-86904819D02*
X149919047Y-86952438D01*
X149919047Y-86952438D02*
X149966666Y-87000057D01*
X149966666Y-87000057D02*
X150014285Y-87095295D01*
X150014285Y-87095295D02*
X150061904Y-87285771D01*
X150061904Y-87285771D02*
X150061904Y-87523866D01*
X150061904Y-87523866D02*
X150014285Y-87714342D01*
X150014285Y-87714342D02*
X149966666Y-87809580D01*
X149966666Y-87809580D02*
X149919047Y-87857200D01*
X149919047Y-87857200D02*
X149823809Y-87904819D01*
X149823809Y-87904819D02*
X149728571Y-87904819D01*
X149728571Y-87904819D02*
X149633333Y-87857200D01*
X149633333Y-87857200D02*
X149585714Y-87809580D01*
X149585714Y-87809580D02*
X149538095Y-87714342D01*
X149538095Y-87714342D02*
X149490476Y-87523866D01*
X149490476Y-87523866D02*
X149490476Y-87285771D01*
X149490476Y-87285771D02*
X149538095Y-87095295D01*
X149538095Y-87095295D02*
X149585714Y-87000057D01*
X149585714Y-87000057D02*
X149633333Y-86952438D01*
X149633333Y-86952438D02*
X149728571Y-86904819D01*
X145828571Y-89687295D02*
X145371428Y-89687295D01*
X145600000Y-89687295D02*
X145600000Y-88887295D01*
X145600000Y-88887295D02*
X145523809Y-89001580D01*
X145523809Y-89001580D02*
X145447619Y-89077771D01*
X145447619Y-89077771D02*
X145371428Y-89115866D01*
X107970167Y-104451950D02*
X108113024Y-104499569D01*
X108113024Y-104499569D02*
X108351119Y-104499569D01*
X108351119Y-104499569D02*
X108446357Y-104451950D01*
X108446357Y-104451950D02*
X108493976Y-104404330D01*
X108493976Y-104404330D02*
X108541595Y-104309092D01*
X108541595Y-104309092D02*
X108541595Y-104213854D01*
X108541595Y-104213854D02*
X108493976Y-104118616D01*
X108493976Y-104118616D02*
X108446357Y-104070997D01*
X108446357Y-104070997D02*
X108351119Y-104023378D01*
X108351119Y-104023378D02*
X108160643Y-103975759D01*
X108160643Y-103975759D02*
X108065405Y-103928140D01*
X108065405Y-103928140D02*
X108017786Y-103880521D01*
X108017786Y-103880521D02*
X107970167Y-103785283D01*
X107970167Y-103785283D02*
X107970167Y-103690045D01*
X107970167Y-103690045D02*
X108017786Y-103594807D01*
X108017786Y-103594807D02*
X108065405Y-103547188D01*
X108065405Y-103547188D02*
X108160643Y-103499569D01*
X108160643Y-103499569D02*
X108398738Y-103499569D01*
X108398738Y-103499569D02*
X108541595Y-103547188D01*
X108874929Y-103499569D02*
X109113024Y-104499569D01*
X109113024Y-104499569D02*
X109303500Y-103785283D01*
X109303500Y-103785283D02*
X109493976Y-104499569D01*
X109493976Y-104499569D02*
X109732072Y-103499569D01*
X110636833Y-104499569D02*
X110065405Y-104499569D01*
X110351119Y-104499569D02*
X110351119Y-103499569D01*
X110351119Y-103499569D02*
X110255881Y-103642426D01*
X110255881Y-103642426D02*
X110160643Y-103737664D01*
X110160643Y-103737664D02*
X110065405Y-103785283D01*
X98134819Y-112656844D02*
X97134819Y-112656844D01*
X97134819Y-112656844D02*
X97134819Y-112418749D01*
X97134819Y-112418749D02*
X97182438Y-112275892D01*
X97182438Y-112275892D02*
X97277676Y-112180654D01*
X97277676Y-112180654D02*
X97372914Y-112133035D01*
X97372914Y-112133035D02*
X97563390Y-112085416D01*
X97563390Y-112085416D02*
X97706247Y-112085416D01*
X97706247Y-112085416D02*
X97896723Y-112133035D01*
X97896723Y-112133035D02*
X97991961Y-112180654D01*
X97991961Y-112180654D02*
X98087200Y-112275892D01*
X98087200Y-112275892D02*
X98134819Y-112418749D01*
X98134819Y-112418749D02*
X98134819Y-112656844D01*
X98134819Y-111133035D02*
X98134819Y-111704463D01*
X98134819Y-111418749D02*
X97134819Y-111418749D01*
X97134819Y-111418749D02*
X97277676Y-111513987D01*
X97277676Y-111513987D02*
X97372914Y-111609225D01*
X97372914Y-111609225D02*
X97420533Y-111704463D01*
X98454819Y-115990654D02*
X97454819Y-115990654D01*
X98454819Y-115419226D02*
X97883390Y-115847797D01*
X97454819Y-115419226D02*
X98026247Y-115990654D01*
X108111905Y-87129819D02*
X108111905Y-86129819D01*
X108111905Y-86129819D02*
X108350000Y-86129819D01*
X108350000Y-86129819D02*
X108492857Y-86177438D01*
X108492857Y-86177438D02*
X108588095Y-86272676D01*
X108588095Y-86272676D02*
X108635714Y-86367914D01*
X108635714Y-86367914D02*
X108683333Y-86558390D01*
X108683333Y-86558390D02*
X108683333Y-86701247D01*
X108683333Y-86701247D02*
X108635714Y-86891723D01*
X108635714Y-86891723D02*
X108588095Y-86986961D01*
X108588095Y-86986961D02*
X108492857Y-87082200D01*
X108492857Y-87082200D02*
X108350000Y-87129819D01*
X108350000Y-87129819D02*
X108111905Y-87129819D01*
X109159524Y-87129819D02*
X109350000Y-87129819D01*
X109350000Y-87129819D02*
X109445238Y-87082200D01*
X109445238Y-87082200D02*
X109492857Y-87034580D01*
X109492857Y-87034580D02*
X109588095Y-86891723D01*
X109588095Y-86891723D02*
X109635714Y-86701247D01*
X109635714Y-86701247D02*
X109635714Y-86320295D01*
X109635714Y-86320295D02*
X109588095Y-86225057D01*
X109588095Y-86225057D02*
X109540476Y-86177438D01*
X109540476Y-86177438D02*
X109445238Y-86129819D01*
X109445238Y-86129819D02*
X109254762Y-86129819D01*
X109254762Y-86129819D02*
X109159524Y-86177438D01*
X109159524Y-86177438D02*
X109111905Y-86225057D01*
X109111905Y-86225057D02*
X109064286Y-86320295D01*
X109064286Y-86320295D02*
X109064286Y-86558390D01*
X109064286Y-86558390D02*
X109111905Y-86653628D01*
X109111905Y-86653628D02*
X109159524Y-86701247D01*
X109159524Y-86701247D02*
X109254762Y-86748866D01*
X109254762Y-86748866D02*
X109445238Y-86748866D01*
X109445238Y-86748866D02*
X109540476Y-86701247D01*
X109540476Y-86701247D02*
X109588095Y-86653628D01*
X109588095Y-86653628D02*
X109635714Y-86558390D01*
X105878571Y-88912295D02*
X105421428Y-88912295D01*
X105650000Y-88912295D02*
X105650000Y-88112295D01*
X105650000Y-88112295D02*
X105573809Y-88226580D01*
X105573809Y-88226580D02*
X105497619Y-88302771D01*
X105497619Y-88302771D02*
X105421428Y-88340866D01*
X136134819Y-131738094D02*
X135134819Y-131738094D01*
X135134819Y-131738094D02*
X135134819Y-131499999D01*
X135134819Y-131499999D02*
X135182438Y-131357142D01*
X135182438Y-131357142D02*
X135277676Y-131261904D01*
X135277676Y-131261904D02*
X135372914Y-131214285D01*
X135372914Y-131214285D02*
X135563390Y-131166666D01*
X135563390Y-131166666D02*
X135706247Y-131166666D01*
X135706247Y-131166666D02*
X135896723Y-131214285D01*
X135896723Y-131214285D02*
X135991961Y-131261904D01*
X135991961Y-131261904D02*
X136087200Y-131357142D01*
X136087200Y-131357142D02*
X136134819Y-131499999D01*
X136134819Y-131499999D02*
X136134819Y-131738094D01*
X135134819Y-130261904D02*
X135134819Y-130738094D01*
X135134819Y-130738094D02*
X135611009Y-130785713D01*
X135611009Y-130785713D02*
X135563390Y-130738094D01*
X135563390Y-130738094D02*
X135515771Y-130642856D01*
X135515771Y-130642856D02*
X135515771Y-130404761D01*
X135515771Y-130404761D02*
X135563390Y-130309523D01*
X135563390Y-130309523D02*
X135611009Y-130261904D01*
X135611009Y-130261904D02*
X135706247Y-130214285D01*
X135706247Y-130214285D02*
X135944342Y-130214285D01*
X135944342Y-130214285D02*
X136039580Y-130261904D01*
X136039580Y-130261904D02*
X136087200Y-130309523D01*
X136087200Y-130309523D02*
X136134819Y-130404761D01*
X136134819Y-130404761D02*
X136134819Y-130642856D01*
X136134819Y-130642856D02*
X136087200Y-130738094D01*
X136087200Y-130738094D02*
X136039580Y-130785713D01*
X136454819Y-135071904D02*
X135454819Y-135071904D01*
X136454819Y-134500476D02*
X135883390Y-134929047D01*
X135454819Y-134500476D02*
X136026247Y-135071904D01*
X107886667Y-142551950D02*
X108029524Y-142599569D01*
X108029524Y-142599569D02*
X108267619Y-142599569D01*
X108267619Y-142599569D02*
X108362857Y-142551950D01*
X108362857Y-142551950D02*
X108410476Y-142504330D01*
X108410476Y-142504330D02*
X108458095Y-142409092D01*
X108458095Y-142409092D02*
X108458095Y-142313854D01*
X108458095Y-142313854D02*
X108410476Y-142218616D01*
X108410476Y-142218616D02*
X108362857Y-142170997D01*
X108362857Y-142170997D02*
X108267619Y-142123378D01*
X108267619Y-142123378D02*
X108077143Y-142075759D01*
X108077143Y-142075759D02*
X107981905Y-142028140D01*
X107981905Y-142028140D02*
X107934286Y-141980521D01*
X107934286Y-141980521D02*
X107886667Y-141885283D01*
X107886667Y-141885283D02*
X107886667Y-141790045D01*
X107886667Y-141790045D02*
X107934286Y-141694807D01*
X107934286Y-141694807D02*
X107981905Y-141647188D01*
X107981905Y-141647188D02*
X108077143Y-141599569D01*
X108077143Y-141599569D02*
X108315238Y-141599569D01*
X108315238Y-141599569D02*
X108458095Y-141647188D01*
X108791429Y-141599569D02*
X109029524Y-142599569D01*
X109029524Y-142599569D02*
X109220000Y-141885283D01*
X109220000Y-141885283D02*
X109410476Y-142599569D01*
X109410476Y-142599569D02*
X109648572Y-141599569D01*
X110458095Y-141599569D02*
X110267619Y-141599569D01*
X110267619Y-141599569D02*
X110172381Y-141647188D01*
X110172381Y-141647188D02*
X110124762Y-141694807D01*
X110124762Y-141694807D02*
X110029524Y-141837664D01*
X110029524Y-141837664D02*
X109981905Y-142028140D01*
X109981905Y-142028140D02*
X109981905Y-142409092D01*
X109981905Y-142409092D02*
X110029524Y-142504330D01*
X110029524Y-142504330D02*
X110077143Y-142551950D01*
X110077143Y-142551950D02*
X110172381Y-142599569D01*
X110172381Y-142599569D02*
X110362857Y-142599569D01*
X110362857Y-142599569D02*
X110458095Y-142551950D01*
X110458095Y-142551950D02*
X110505714Y-142504330D01*
X110505714Y-142504330D02*
X110553333Y-142409092D01*
X110553333Y-142409092D02*
X110553333Y-142170997D01*
X110553333Y-142170997D02*
X110505714Y-142075759D01*
X110505714Y-142075759D02*
X110458095Y-142028140D01*
X110458095Y-142028140D02*
X110362857Y-141980521D01*
X110362857Y-141980521D02*
X110172381Y-141980521D01*
X110172381Y-141980521D02*
X110077143Y-142028140D01*
X110077143Y-142028140D02*
X110029524Y-142075759D01*
X110029524Y-142075759D02*
X109981905Y-142170997D01*
X117134819Y-150548094D02*
X116134819Y-150548094D01*
X116134819Y-150548094D02*
X116134819Y-150309999D01*
X116134819Y-150309999D02*
X116182438Y-150167142D01*
X116182438Y-150167142D02*
X116277676Y-150071904D01*
X116277676Y-150071904D02*
X116372914Y-150024285D01*
X116372914Y-150024285D02*
X116563390Y-149976666D01*
X116563390Y-149976666D02*
X116706247Y-149976666D01*
X116706247Y-149976666D02*
X116896723Y-150024285D01*
X116896723Y-150024285D02*
X116991961Y-150071904D01*
X116991961Y-150071904D02*
X117087200Y-150167142D01*
X117087200Y-150167142D02*
X117134819Y-150309999D01*
X117134819Y-150309999D02*
X117134819Y-150548094D01*
X116134819Y-149643332D02*
X116134819Y-148976666D01*
X116134819Y-148976666D02*
X117134819Y-149405237D01*
X117454819Y-153881904D02*
X116454819Y-153881904D01*
X117454819Y-153310476D02*
X116883390Y-153739047D01*
X116454819Y-153310476D02*
X117026247Y-153881904D01*
X107886667Y-123501950D02*
X108029524Y-123549569D01*
X108029524Y-123549569D02*
X108267619Y-123549569D01*
X108267619Y-123549569D02*
X108362857Y-123501950D01*
X108362857Y-123501950D02*
X108410476Y-123454330D01*
X108410476Y-123454330D02*
X108458095Y-123359092D01*
X108458095Y-123359092D02*
X108458095Y-123263854D01*
X108458095Y-123263854D02*
X108410476Y-123168616D01*
X108410476Y-123168616D02*
X108362857Y-123120997D01*
X108362857Y-123120997D02*
X108267619Y-123073378D01*
X108267619Y-123073378D02*
X108077143Y-123025759D01*
X108077143Y-123025759D02*
X107981905Y-122978140D01*
X107981905Y-122978140D02*
X107934286Y-122930521D01*
X107934286Y-122930521D02*
X107886667Y-122835283D01*
X107886667Y-122835283D02*
X107886667Y-122740045D01*
X107886667Y-122740045D02*
X107934286Y-122644807D01*
X107934286Y-122644807D02*
X107981905Y-122597188D01*
X107981905Y-122597188D02*
X108077143Y-122549569D01*
X108077143Y-122549569D02*
X108315238Y-122549569D01*
X108315238Y-122549569D02*
X108458095Y-122597188D01*
X108791429Y-122549569D02*
X109029524Y-123549569D01*
X109029524Y-123549569D02*
X109220000Y-122835283D01*
X109220000Y-122835283D02*
X109410476Y-123549569D01*
X109410476Y-123549569D02*
X109648572Y-122549569D01*
X109934286Y-122549569D02*
X110553333Y-122549569D01*
X110553333Y-122549569D02*
X110220000Y-122930521D01*
X110220000Y-122930521D02*
X110362857Y-122930521D01*
X110362857Y-122930521D02*
X110458095Y-122978140D01*
X110458095Y-122978140D02*
X110505714Y-123025759D01*
X110505714Y-123025759D02*
X110553333Y-123120997D01*
X110553333Y-123120997D02*
X110553333Y-123359092D01*
X110553333Y-123359092D02*
X110505714Y-123454330D01*
X110505714Y-123454330D02*
X110458095Y-123501950D01*
X110458095Y-123501950D02*
X110362857Y-123549569D01*
X110362857Y-123549569D02*
X110077143Y-123549569D01*
X110077143Y-123549569D02*
X109981905Y-123501950D01*
X109981905Y-123501950D02*
X109934286Y-123454330D01*
X126936667Y-142551950D02*
X127079524Y-142599569D01*
X127079524Y-142599569D02*
X127317619Y-142599569D01*
X127317619Y-142599569D02*
X127412857Y-142551950D01*
X127412857Y-142551950D02*
X127460476Y-142504330D01*
X127460476Y-142504330D02*
X127508095Y-142409092D01*
X127508095Y-142409092D02*
X127508095Y-142313854D01*
X127508095Y-142313854D02*
X127460476Y-142218616D01*
X127460476Y-142218616D02*
X127412857Y-142170997D01*
X127412857Y-142170997D02*
X127317619Y-142123378D01*
X127317619Y-142123378D02*
X127127143Y-142075759D01*
X127127143Y-142075759D02*
X127031905Y-142028140D01*
X127031905Y-142028140D02*
X126984286Y-141980521D01*
X126984286Y-141980521D02*
X126936667Y-141885283D01*
X126936667Y-141885283D02*
X126936667Y-141790045D01*
X126936667Y-141790045D02*
X126984286Y-141694807D01*
X126984286Y-141694807D02*
X127031905Y-141647188D01*
X127031905Y-141647188D02*
X127127143Y-141599569D01*
X127127143Y-141599569D02*
X127365238Y-141599569D01*
X127365238Y-141599569D02*
X127508095Y-141647188D01*
X127841429Y-141599569D02*
X128079524Y-142599569D01*
X128079524Y-142599569D02*
X128270000Y-141885283D01*
X128270000Y-141885283D02*
X128460476Y-142599569D01*
X128460476Y-142599569D02*
X128698572Y-141599569D01*
X128984286Y-141599569D02*
X129650952Y-141599569D01*
X129650952Y-141599569D02*
X129222381Y-142599569D01*
D12*
X138116190Y-80553479D02*
X138116190Y-81067526D01*
X138116190Y-81067526D02*
X138146428Y-81128002D01*
X138146428Y-81128002D02*
X138176666Y-81158241D01*
X138176666Y-81158241D02*
X138237142Y-81188479D01*
X138237142Y-81188479D02*
X138358095Y-81188479D01*
X138358095Y-81188479D02*
X138418571Y-81158241D01*
X138418571Y-81158241D02*
X138448809Y-81128002D01*
X138448809Y-81128002D02*
X138479047Y-81067526D01*
X138479047Y-81067526D02*
X138479047Y-80553479D01*
X139114047Y-81188479D02*
X138751190Y-81188479D01*
X138932618Y-81188479D02*
X138932618Y-80553479D01*
X138932618Y-80553479D02*
X138872142Y-80644193D01*
X138872142Y-80644193D02*
X138811666Y-80704669D01*
X138811666Y-80704669D02*
X138751190Y-80734907D01*
D11*
X117134819Y-131638094D02*
X116134819Y-131638094D01*
X116134819Y-131638094D02*
X116134819Y-131399999D01*
X116134819Y-131399999D02*
X116182438Y-131257142D01*
X116182438Y-131257142D02*
X116277676Y-131161904D01*
X116277676Y-131161904D02*
X116372914Y-131114285D01*
X116372914Y-131114285D02*
X116563390Y-131066666D01*
X116563390Y-131066666D02*
X116706247Y-131066666D01*
X116706247Y-131066666D02*
X116896723Y-131114285D01*
X116896723Y-131114285D02*
X116991961Y-131161904D01*
X116991961Y-131161904D02*
X117087200Y-131257142D01*
X117087200Y-131257142D02*
X117134819Y-131399999D01*
X117134819Y-131399999D02*
X117134819Y-131638094D01*
X116468152Y-130209523D02*
X117134819Y-130209523D01*
X116087200Y-130447618D02*
X116801485Y-130685713D01*
X116801485Y-130685713D02*
X116801485Y-130066666D01*
X117454819Y-134971904D02*
X116454819Y-134971904D01*
X117454819Y-134400476D02*
X116883390Y-134829047D01*
X116454819Y-134400476D02*
X117026247Y-134971904D01*
X141666667Y-104307200D02*
X141809524Y-104354819D01*
X141809524Y-104354819D02*
X142047619Y-104354819D01*
X142047619Y-104354819D02*
X142142857Y-104307200D01*
X142142857Y-104307200D02*
X142190476Y-104259580D01*
X142190476Y-104259580D02*
X142238095Y-104164342D01*
X142238095Y-104164342D02*
X142238095Y-104069104D01*
X142238095Y-104069104D02*
X142190476Y-103973866D01*
X142190476Y-103973866D02*
X142142857Y-103926247D01*
X142142857Y-103926247D02*
X142047619Y-103878628D01*
X142047619Y-103878628D02*
X141857143Y-103831009D01*
X141857143Y-103831009D02*
X141761905Y-103783390D01*
X141761905Y-103783390D02*
X141714286Y-103735771D01*
X141714286Y-103735771D02*
X141666667Y-103640533D01*
X141666667Y-103640533D02*
X141666667Y-103545295D01*
X141666667Y-103545295D02*
X141714286Y-103450057D01*
X141714286Y-103450057D02*
X141761905Y-103402438D01*
X141761905Y-103402438D02*
X141857143Y-103354819D01*
X141857143Y-103354819D02*
X142095238Y-103354819D01*
X142095238Y-103354819D02*
X142238095Y-103402438D01*
X142571429Y-103354819D02*
X142809524Y-104354819D01*
X142809524Y-104354819D02*
X143000000Y-103640533D01*
X143000000Y-103640533D02*
X143190476Y-104354819D01*
X143190476Y-104354819D02*
X143428572Y-103354819D01*
X143857143Y-104354819D02*
X144047619Y-104354819D01*
X144047619Y-104354819D02*
X144142857Y-104307200D01*
X144142857Y-104307200D02*
X144190476Y-104259580D01*
X144190476Y-104259580D02*
X144285714Y-104116723D01*
X144285714Y-104116723D02*
X144333333Y-103926247D01*
X144333333Y-103926247D02*
X144333333Y-103545295D01*
X144333333Y-103545295D02*
X144285714Y-103450057D01*
X144285714Y-103450057D02*
X144238095Y-103402438D01*
X144238095Y-103402438D02*
X144142857Y-103354819D01*
X144142857Y-103354819D02*
X143952381Y-103354819D01*
X143952381Y-103354819D02*
X143857143Y-103402438D01*
X143857143Y-103402438D02*
X143809524Y-103450057D01*
X143809524Y-103450057D02*
X143761905Y-103545295D01*
X143761905Y-103545295D02*
X143761905Y-103783390D01*
X143761905Y-103783390D02*
X143809524Y-103878628D01*
X143809524Y-103878628D02*
X143857143Y-103926247D01*
X143857143Y-103926247D02*
X143952381Y-103973866D01*
X143952381Y-103973866D02*
X144142857Y-103973866D01*
X144142857Y-103973866D02*
X144238095Y-103926247D01*
X144238095Y-103926247D02*
X144285714Y-103878628D01*
X144285714Y-103878628D02*
X144333333Y-103783390D01*
X98034819Y-150738094D02*
X97034819Y-150738094D01*
X97034819Y-150738094D02*
X97034819Y-150499999D01*
X97034819Y-150499999D02*
X97082438Y-150357142D01*
X97082438Y-150357142D02*
X97177676Y-150261904D01*
X97177676Y-150261904D02*
X97272914Y-150214285D01*
X97272914Y-150214285D02*
X97463390Y-150166666D01*
X97463390Y-150166666D02*
X97606247Y-150166666D01*
X97606247Y-150166666D02*
X97796723Y-150214285D01*
X97796723Y-150214285D02*
X97891961Y-150261904D01*
X97891961Y-150261904D02*
X97987200Y-150357142D01*
X97987200Y-150357142D02*
X98034819Y-150499999D01*
X98034819Y-150499999D02*
X98034819Y-150738094D01*
X97034819Y-149309523D02*
X97034819Y-149499999D01*
X97034819Y-149499999D02*
X97082438Y-149595237D01*
X97082438Y-149595237D02*
X97130057Y-149642856D01*
X97130057Y-149642856D02*
X97272914Y-149738094D01*
X97272914Y-149738094D02*
X97463390Y-149785713D01*
X97463390Y-149785713D02*
X97844342Y-149785713D01*
X97844342Y-149785713D02*
X97939580Y-149738094D01*
X97939580Y-149738094D02*
X97987200Y-149690475D01*
X97987200Y-149690475D02*
X98034819Y-149595237D01*
X98034819Y-149595237D02*
X98034819Y-149404761D01*
X98034819Y-149404761D02*
X97987200Y-149309523D01*
X97987200Y-149309523D02*
X97939580Y-149261904D01*
X97939580Y-149261904D02*
X97844342Y-149214285D01*
X97844342Y-149214285D02*
X97606247Y-149214285D01*
X97606247Y-149214285D02*
X97511009Y-149261904D01*
X97511009Y-149261904D02*
X97463390Y-149309523D01*
X97463390Y-149309523D02*
X97415771Y-149404761D01*
X97415771Y-149404761D02*
X97415771Y-149595237D01*
X97415771Y-149595237D02*
X97463390Y-149690475D01*
X97463390Y-149690475D02*
X97511009Y-149738094D01*
X97511009Y-149738094D02*
X97606247Y-149785713D01*
X98354819Y-154071904D02*
X97354819Y-154071904D01*
X98354819Y-153500476D02*
X97783390Y-153929047D01*
X97354819Y-153500476D02*
X97926247Y-154071904D01*
X126936667Y-123501950D02*
X127079524Y-123549569D01*
X127079524Y-123549569D02*
X127317619Y-123549569D01*
X127317619Y-123549569D02*
X127412857Y-123501950D01*
X127412857Y-123501950D02*
X127460476Y-123454330D01*
X127460476Y-123454330D02*
X127508095Y-123359092D01*
X127508095Y-123359092D02*
X127508095Y-123263854D01*
X127508095Y-123263854D02*
X127460476Y-123168616D01*
X127460476Y-123168616D02*
X127412857Y-123120997D01*
X127412857Y-123120997D02*
X127317619Y-123073378D01*
X127317619Y-123073378D02*
X127127143Y-123025759D01*
X127127143Y-123025759D02*
X127031905Y-122978140D01*
X127031905Y-122978140D02*
X126984286Y-122930521D01*
X126984286Y-122930521D02*
X126936667Y-122835283D01*
X126936667Y-122835283D02*
X126936667Y-122740045D01*
X126936667Y-122740045D02*
X126984286Y-122644807D01*
X126984286Y-122644807D02*
X127031905Y-122597188D01*
X127031905Y-122597188D02*
X127127143Y-122549569D01*
X127127143Y-122549569D02*
X127365238Y-122549569D01*
X127365238Y-122549569D02*
X127508095Y-122597188D01*
X127841429Y-122549569D02*
X128079524Y-123549569D01*
X128079524Y-123549569D02*
X128270000Y-122835283D01*
X128270000Y-122835283D02*
X128460476Y-123549569D01*
X128460476Y-123549569D02*
X128698572Y-122549569D01*
X129508095Y-122882902D02*
X129508095Y-123549569D01*
X129270000Y-122501950D02*
X129031905Y-123216235D01*
X129031905Y-123216235D02*
X129650952Y-123216235D01*
X136134819Y-150738094D02*
X135134819Y-150738094D01*
X135134819Y-150738094D02*
X135134819Y-150499999D01*
X135134819Y-150499999D02*
X135182438Y-150357142D01*
X135182438Y-150357142D02*
X135277676Y-150261904D01*
X135277676Y-150261904D02*
X135372914Y-150214285D01*
X135372914Y-150214285D02*
X135563390Y-150166666D01*
X135563390Y-150166666D02*
X135706247Y-150166666D01*
X135706247Y-150166666D02*
X135896723Y-150214285D01*
X135896723Y-150214285D02*
X135991961Y-150261904D01*
X135991961Y-150261904D02*
X136087200Y-150357142D01*
X136087200Y-150357142D02*
X136134819Y-150499999D01*
X136134819Y-150499999D02*
X136134819Y-150738094D01*
X135563390Y-149595237D02*
X135515771Y-149690475D01*
X135515771Y-149690475D02*
X135468152Y-149738094D01*
X135468152Y-149738094D02*
X135372914Y-149785713D01*
X135372914Y-149785713D02*
X135325295Y-149785713D01*
X135325295Y-149785713D02*
X135230057Y-149738094D01*
X135230057Y-149738094D02*
X135182438Y-149690475D01*
X135182438Y-149690475D02*
X135134819Y-149595237D01*
X135134819Y-149595237D02*
X135134819Y-149404761D01*
X135134819Y-149404761D02*
X135182438Y-149309523D01*
X135182438Y-149309523D02*
X135230057Y-149261904D01*
X135230057Y-149261904D02*
X135325295Y-149214285D01*
X135325295Y-149214285D02*
X135372914Y-149214285D01*
X135372914Y-149214285D02*
X135468152Y-149261904D01*
X135468152Y-149261904D02*
X135515771Y-149309523D01*
X135515771Y-149309523D02*
X135563390Y-149404761D01*
X135563390Y-149404761D02*
X135563390Y-149595237D01*
X135563390Y-149595237D02*
X135611009Y-149690475D01*
X135611009Y-149690475D02*
X135658628Y-149738094D01*
X135658628Y-149738094D02*
X135753866Y-149785713D01*
X135753866Y-149785713D02*
X135944342Y-149785713D01*
X135944342Y-149785713D02*
X136039580Y-149738094D01*
X136039580Y-149738094D02*
X136087200Y-149690475D01*
X136087200Y-149690475D02*
X136134819Y-149595237D01*
X136134819Y-149595237D02*
X136134819Y-149404761D01*
X136134819Y-149404761D02*
X136087200Y-149309523D01*
X136087200Y-149309523D02*
X136039580Y-149261904D01*
X136039580Y-149261904D02*
X135944342Y-149214285D01*
X135944342Y-149214285D02*
X135753866Y-149214285D01*
X135753866Y-149214285D02*
X135658628Y-149261904D01*
X135658628Y-149261904D02*
X135611009Y-149309523D01*
X135611009Y-149309523D02*
X135563390Y-149404761D01*
X136454819Y-154071904D02*
X135454819Y-154071904D01*
X136454819Y-153500476D02*
X135883390Y-153929047D01*
X135454819Y-153500476D02*
X136026247Y-154071904D01*
X145986667Y-142551950D02*
X146129524Y-142599569D01*
X146129524Y-142599569D02*
X146367619Y-142599569D01*
X146367619Y-142599569D02*
X146462857Y-142551950D01*
X146462857Y-142551950D02*
X146510476Y-142504330D01*
X146510476Y-142504330D02*
X146558095Y-142409092D01*
X146558095Y-142409092D02*
X146558095Y-142313854D01*
X146558095Y-142313854D02*
X146510476Y-142218616D01*
X146510476Y-142218616D02*
X146462857Y-142170997D01*
X146462857Y-142170997D02*
X146367619Y-142123378D01*
X146367619Y-142123378D02*
X146177143Y-142075759D01*
X146177143Y-142075759D02*
X146081905Y-142028140D01*
X146081905Y-142028140D02*
X146034286Y-141980521D01*
X146034286Y-141980521D02*
X145986667Y-141885283D01*
X145986667Y-141885283D02*
X145986667Y-141790045D01*
X145986667Y-141790045D02*
X146034286Y-141694807D01*
X146034286Y-141694807D02*
X146081905Y-141647188D01*
X146081905Y-141647188D02*
X146177143Y-141599569D01*
X146177143Y-141599569D02*
X146415238Y-141599569D01*
X146415238Y-141599569D02*
X146558095Y-141647188D01*
X146891429Y-141599569D02*
X147129524Y-142599569D01*
X147129524Y-142599569D02*
X147320000Y-141885283D01*
X147320000Y-141885283D02*
X147510476Y-142599569D01*
X147510476Y-142599569D02*
X147748572Y-141599569D01*
X148272381Y-142028140D02*
X148177143Y-141980521D01*
X148177143Y-141980521D02*
X148129524Y-141932902D01*
X148129524Y-141932902D02*
X148081905Y-141837664D01*
X148081905Y-141837664D02*
X148081905Y-141790045D01*
X148081905Y-141790045D02*
X148129524Y-141694807D01*
X148129524Y-141694807D02*
X148177143Y-141647188D01*
X148177143Y-141647188D02*
X148272381Y-141599569D01*
X148272381Y-141599569D02*
X148462857Y-141599569D01*
X148462857Y-141599569D02*
X148558095Y-141647188D01*
X148558095Y-141647188D02*
X148605714Y-141694807D01*
X148605714Y-141694807D02*
X148653333Y-141790045D01*
X148653333Y-141790045D02*
X148653333Y-141837664D01*
X148653333Y-141837664D02*
X148605714Y-141932902D01*
X148605714Y-141932902D02*
X148558095Y-141980521D01*
X148558095Y-141980521D02*
X148462857Y-142028140D01*
X148462857Y-142028140D02*
X148272381Y-142028140D01*
X148272381Y-142028140D02*
X148177143Y-142075759D01*
X148177143Y-142075759D02*
X148129524Y-142123378D01*
X148129524Y-142123378D02*
X148081905Y-142218616D01*
X148081905Y-142218616D02*
X148081905Y-142409092D01*
X148081905Y-142409092D02*
X148129524Y-142504330D01*
X148129524Y-142504330D02*
X148177143Y-142551950D01*
X148177143Y-142551950D02*
X148272381Y-142599569D01*
X148272381Y-142599569D02*
X148462857Y-142599569D01*
X148462857Y-142599569D02*
X148558095Y-142551950D01*
X148558095Y-142551950D02*
X148605714Y-142504330D01*
X148605714Y-142504330D02*
X148653333Y-142409092D01*
X148653333Y-142409092D02*
X148653333Y-142218616D01*
X148653333Y-142218616D02*
X148605714Y-142123378D01*
X148605714Y-142123378D02*
X148558095Y-142075759D01*
X148558095Y-142075759D02*
X148462857Y-142028140D01*
X98034819Y-131738094D02*
X97034819Y-131738094D01*
X97034819Y-131738094D02*
X97034819Y-131499999D01*
X97034819Y-131499999D02*
X97082438Y-131357142D01*
X97082438Y-131357142D02*
X97177676Y-131261904D01*
X97177676Y-131261904D02*
X97272914Y-131214285D01*
X97272914Y-131214285D02*
X97463390Y-131166666D01*
X97463390Y-131166666D02*
X97606247Y-131166666D01*
X97606247Y-131166666D02*
X97796723Y-131214285D01*
X97796723Y-131214285D02*
X97891961Y-131261904D01*
X97891961Y-131261904D02*
X97987200Y-131357142D01*
X97987200Y-131357142D02*
X98034819Y-131499999D01*
X98034819Y-131499999D02*
X98034819Y-131738094D01*
X97034819Y-130833332D02*
X97034819Y-130214285D01*
X97034819Y-130214285D02*
X97415771Y-130547618D01*
X97415771Y-130547618D02*
X97415771Y-130404761D01*
X97415771Y-130404761D02*
X97463390Y-130309523D01*
X97463390Y-130309523D02*
X97511009Y-130261904D01*
X97511009Y-130261904D02*
X97606247Y-130214285D01*
X97606247Y-130214285D02*
X97844342Y-130214285D01*
X97844342Y-130214285D02*
X97939580Y-130261904D01*
X97939580Y-130261904D02*
X97987200Y-130309523D01*
X97987200Y-130309523D02*
X98034819Y-130404761D01*
X98034819Y-130404761D02*
X98034819Y-130690475D01*
X98034819Y-130690475D02*
X97987200Y-130785713D01*
X97987200Y-130785713D02*
X97939580Y-130833332D01*
X98354819Y-135071904D02*
X97354819Y-135071904D01*
X98354819Y-134500476D02*
X97783390Y-134929047D01*
X97354819Y-134500476D02*
X97926247Y-135071904D01*
X126936667Y-104451950D02*
X127079524Y-104499569D01*
X127079524Y-104499569D02*
X127317619Y-104499569D01*
X127317619Y-104499569D02*
X127412857Y-104451950D01*
X127412857Y-104451950D02*
X127460476Y-104404330D01*
X127460476Y-104404330D02*
X127508095Y-104309092D01*
X127508095Y-104309092D02*
X127508095Y-104213854D01*
X127508095Y-104213854D02*
X127460476Y-104118616D01*
X127460476Y-104118616D02*
X127412857Y-104070997D01*
X127412857Y-104070997D02*
X127317619Y-104023378D01*
X127317619Y-104023378D02*
X127127143Y-103975759D01*
X127127143Y-103975759D02*
X127031905Y-103928140D01*
X127031905Y-103928140D02*
X126984286Y-103880521D01*
X126984286Y-103880521D02*
X126936667Y-103785283D01*
X126936667Y-103785283D02*
X126936667Y-103690045D01*
X126936667Y-103690045D02*
X126984286Y-103594807D01*
X126984286Y-103594807D02*
X127031905Y-103547188D01*
X127031905Y-103547188D02*
X127127143Y-103499569D01*
X127127143Y-103499569D02*
X127365238Y-103499569D01*
X127365238Y-103499569D02*
X127508095Y-103547188D01*
X127841429Y-103499569D02*
X128079524Y-104499569D01*
X128079524Y-104499569D02*
X128270000Y-103785283D01*
X128270000Y-103785283D02*
X128460476Y-104499569D01*
X128460476Y-104499569D02*
X128698572Y-103499569D01*
X129031905Y-103594807D02*
X129079524Y-103547188D01*
X129079524Y-103547188D02*
X129174762Y-103499569D01*
X129174762Y-103499569D02*
X129412857Y-103499569D01*
X129412857Y-103499569D02*
X129508095Y-103547188D01*
X129508095Y-103547188D02*
X129555714Y-103594807D01*
X129555714Y-103594807D02*
X129603333Y-103690045D01*
X129603333Y-103690045D02*
X129603333Y-103785283D01*
X129603333Y-103785283D02*
X129555714Y-103928140D01*
X129555714Y-103928140D02*
X128984286Y-104499569D01*
X128984286Y-104499569D02*
X129603333Y-104499569D01*
X145986667Y-123501950D02*
X146129524Y-123549569D01*
X146129524Y-123549569D02*
X146367619Y-123549569D01*
X146367619Y-123549569D02*
X146462857Y-123501950D01*
X146462857Y-123501950D02*
X146510476Y-123454330D01*
X146510476Y-123454330D02*
X146558095Y-123359092D01*
X146558095Y-123359092D02*
X146558095Y-123263854D01*
X146558095Y-123263854D02*
X146510476Y-123168616D01*
X146510476Y-123168616D02*
X146462857Y-123120997D01*
X146462857Y-123120997D02*
X146367619Y-123073378D01*
X146367619Y-123073378D02*
X146177143Y-123025759D01*
X146177143Y-123025759D02*
X146081905Y-122978140D01*
X146081905Y-122978140D02*
X146034286Y-122930521D01*
X146034286Y-122930521D02*
X145986667Y-122835283D01*
X145986667Y-122835283D02*
X145986667Y-122740045D01*
X145986667Y-122740045D02*
X146034286Y-122644807D01*
X146034286Y-122644807D02*
X146081905Y-122597188D01*
X146081905Y-122597188D02*
X146177143Y-122549569D01*
X146177143Y-122549569D02*
X146415238Y-122549569D01*
X146415238Y-122549569D02*
X146558095Y-122597188D01*
X146891429Y-122549569D02*
X147129524Y-123549569D01*
X147129524Y-123549569D02*
X147320000Y-122835283D01*
X147320000Y-122835283D02*
X147510476Y-123549569D01*
X147510476Y-123549569D02*
X147748572Y-122549569D01*
X148605714Y-122549569D02*
X148129524Y-122549569D01*
X148129524Y-122549569D02*
X148081905Y-123025759D01*
X148081905Y-123025759D02*
X148129524Y-122978140D01*
X148129524Y-122978140D02*
X148224762Y-122930521D01*
X148224762Y-122930521D02*
X148462857Y-122930521D01*
X148462857Y-122930521D02*
X148558095Y-122978140D01*
X148558095Y-122978140D02*
X148605714Y-123025759D01*
X148605714Y-123025759D02*
X148653333Y-123120997D01*
X148653333Y-123120997D02*
X148653333Y-123359092D01*
X148653333Y-123359092D02*
X148605714Y-123454330D01*
X148605714Y-123454330D02*
X148558095Y-123501950D01*
X148558095Y-123501950D02*
X148462857Y-123549569D01*
X148462857Y-123549569D02*
X148224762Y-123549569D01*
X148224762Y-123549569D02*
X148129524Y-123501950D01*
X148129524Y-123501950D02*
X148081905Y-123454330D01*
D13*
%TO.C,D2*%
X117680000Y-113180000D02*
X119920000Y-113180000D01*
X117680000Y-113300000D02*
X119920000Y-113300000D01*
X117680000Y-113420000D02*
X119920000Y-113420000D01*
X118800000Y-109130000D02*
X118800000Y-109780000D01*
X118800000Y-114670000D02*
X118800000Y-114020000D01*
X117680000Y-114020000D02*
X119920000Y-114020000D01*
X119920000Y-109780000D01*
X117680000Y-109780000D01*
X117680000Y-114020000D01*
%TO.C,D10*%
X146000000Y-88200000D02*
X146000000Y-92200000D01*
X146000000Y-88200000D02*
X151600000Y-88200000D01*
X146000000Y-92200000D02*
X151000000Y-92200000D01*
X151600000Y-91600000D02*
X151000000Y-92200000D01*
X151600000Y-91600000D02*
X151600000Y-88200000D01*
%TO.C,SW1*%
X102318500Y-104933750D02*
X116288500Y-104933750D01*
X102318500Y-118903750D02*
X102318500Y-104933750D01*
X116288500Y-104933750D02*
X116288500Y-118903750D01*
X116288500Y-118903750D02*
X102318500Y-118903750D01*
%TO.C,D1*%
X98680000Y-113198750D02*
X100920000Y-113198750D01*
X98680000Y-113318750D02*
X100920000Y-113318750D01*
X98680000Y-113438750D02*
X100920000Y-113438750D01*
X99800000Y-109148750D02*
X99800000Y-109798750D01*
X99800000Y-114688750D02*
X99800000Y-114038750D01*
X98680000Y-114038750D02*
X100920000Y-114038750D01*
X100920000Y-109798750D01*
X98680000Y-109798750D01*
X98680000Y-114038750D01*
%TO.C,D9*%
X106050000Y-87425000D02*
X106050000Y-91425000D01*
X106050000Y-87425000D02*
X111650000Y-87425000D01*
X106050000Y-91425000D02*
X111050000Y-91425000D01*
X111650000Y-90825000D02*
X111050000Y-91425000D01*
X111650000Y-90825000D02*
X111650000Y-87425000D01*
%TO.C,D5*%
X136680000Y-132280000D02*
X138920000Y-132280000D01*
X136680000Y-132400000D02*
X138920000Y-132400000D01*
X136680000Y-132520000D02*
X138920000Y-132520000D01*
X137800000Y-128230000D02*
X137800000Y-128880000D01*
X137800000Y-133770000D02*
X137800000Y-133120000D01*
X136680000Y-133120000D02*
X138920000Y-133120000D01*
X138920000Y-128880000D01*
X136680000Y-128880000D01*
X136680000Y-133120000D01*
%TO.C,SW6*%
X102235000Y-143033750D02*
X116205000Y-143033750D01*
X102235000Y-157003750D02*
X102235000Y-143033750D01*
X116205000Y-143033750D02*
X116205000Y-157003750D01*
X116205000Y-157003750D02*
X102235000Y-157003750D01*
%TO.C,D7*%
X117680000Y-151090000D02*
X119920000Y-151090000D01*
X117680000Y-151210000D02*
X119920000Y-151210000D01*
X117680000Y-151330000D02*
X119920000Y-151330000D01*
X118800000Y-147040000D02*
X118800000Y-147690000D01*
X118800000Y-152580000D02*
X118800000Y-151930000D01*
X117680000Y-151930000D02*
X119920000Y-151930000D01*
X119920000Y-147690000D01*
X117680000Y-147690000D01*
X117680000Y-151930000D01*
%TO.C,SW3*%
X102235000Y-123983750D02*
X116205000Y-123983750D01*
X102235000Y-137953750D02*
X102235000Y-123983750D01*
X116205000Y-123983750D02*
X116205000Y-137953750D01*
X116205000Y-137953750D02*
X102235000Y-137953750D01*
%TO.C,SW7*%
X121285000Y-143033750D02*
X135255000Y-143033750D01*
X121285000Y-157003750D02*
X121285000Y-143033750D01*
X135255000Y-143033750D02*
X135255000Y-157003750D01*
X135255000Y-157003750D02*
X121285000Y-157003750D01*
D14*
%TO.C,U1*%
X119310000Y-98809000D02*
X119310000Y-81664000D01*
X121215000Y-100714000D02*
X135185000Y-100714000D01*
X123705000Y-79759000D02*
X123708728Y-78848728D01*
X124208728Y-78349000D02*
X132204000Y-78349000D01*
X132704000Y-78849000D02*
X132704000Y-79759000D01*
D10*
X135185000Y-79759000D02*
X121215000Y-79759000D01*
D14*
X135185000Y-79759000D02*
X121215000Y-79759000D01*
X137090000Y-98809000D02*
X137090000Y-81664000D01*
X119310000Y-81664000D02*
G75*
G02*
X121215000Y-79759000I1905001J-1D01*
G01*
X121215000Y-100714000D02*
G75*
G02*
X119310000Y-98809000I1J1905001D01*
G01*
X123708728Y-78848728D02*
G75*
G02*
X124208728Y-78349001I500018J-291D01*
G01*
X132204000Y-78349000D02*
G75*
G02*
X132704000Y-78849000I0J-500000D01*
G01*
X135185000Y-79759000D02*
G75*
G02*
X137090000Y-81664000I0J-1905000D01*
G01*
X137090000Y-98809000D02*
G75*
G02*
X135185000Y-100714000I-1905000J0D01*
G01*
D15*
X119502000Y-80000000D02*
G75*
G02*
X118998000Y-80000000I-252000J0D01*
G01*
X118998000Y-80000000D02*
G75*
G02*
X119502000Y-80000000I252000J0D01*
G01*
X120645000Y-80880000D02*
G75*
G02*
X120141000Y-80880000I-252000J0D01*
G01*
X120141000Y-80880000D02*
G75*
G02*
X120645000Y-80880000I252000J0D01*
G01*
D13*
%TO.C,D4*%
X117680000Y-132180000D02*
X119920000Y-132180000D01*
X117680000Y-132300000D02*
X119920000Y-132300000D01*
X117680000Y-132420000D02*
X119920000Y-132420000D01*
X118800000Y-128130000D02*
X118800000Y-128780000D01*
X118800000Y-133670000D02*
X118800000Y-133020000D01*
X117680000Y-133020000D02*
X119920000Y-133020000D01*
X119920000Y-128780000D01*
X117680000Y-128780000D01*
X117680000Y-133020000D01*
%TO.C,SW9*%
X139900000Y-107000000D02*
X140500000Y-107000000D01*
X140200000Y-107300000D02*
X139900000Y-107000000D01*
X140500000Y-107000000D02*
X140200000Y-107300000D01*
X141600000Y-105200000D02*
X141600000Y-117000000D01*
X145700000Y-105200000D02*
X141600000Y-105200000D01*
X145700000Y-117000000D02*
X141600000Y-117000000D01*
X147200000Y-111100000D02*
X148200000Y-111100000D01*
X147700000Y-110600000D02*
X147700000Y-111600000D01*
X149700000Y-105200000D02*
X153800000Y-105200000D01*
X153800000Y-105200000D02*
X153800000Y-107600000D01*
X153800000Y-109800000D02*
X153800000Y-112400000D01*
X153800000Y-114600000D02*
X153800000Y-117000000D01*
X153800000Y-117000000D02*
X149700000Y-117000000D01*
X150700000Y-111100000D02*
G75*
G02*
X144700000Y-111100000I-3000000J0D01*
G01*
X144700000Y-111100000D02*
G75*
G02*
X150700000Y-111100000I3000000J0D01*
G01*
%TO.C,D6*%
X98580000Y-151280000D02*
X100820000Y-151280000D01*
X98580000Y-151400000D02*
X100820000Y-151400000D01*
X98580000Y-151520000D02*
X100820000Y-151520000D01*
X99700000Y-147230000D02*
X99700000Y-147880000D01*
X99700000Y-152770000D02*
X99700000Y-152120000D01*
X98580000Y-152120000D02*
X100820000Y-152120000D01*
X100820000Y-147880000D01*
X98580000Y-147880000D01*
X98580000Y-152120000D01*
%TO.C,SW4*%
X121285000Y-123983750D02*
X135255000Y-123983750D01*
X121285000Y-137953750D02*
X121285000Y-123983750D01*
X135255000Y-123983750D02*
X135255000Y-137953750D01*
X135255000Y-137953750D02*
X121285000Y-137953750D01*
%TO.C,D8*%
X136680000Y-151280000D02*
X138920000Y-151280000D01*
X136680000Y-151400000D02*
X138920000Y-151400000D01*
X136680000Y-151520000D02*
X138920000Y-151520000D01*
X137800000Y-147230000D02*
X137800000Y-147880000D01*
X137800000Y-152770000D02*
X137800000Y-152120000D01*
X136680000Y-152120000D02*
X138920000Y-152120000D01*
X138920000Y-147880000D01*
X136680000Y-147880000D01*
X136680000Y-152120000D01*
%TO.C,SW8*%
X140335000Y-143033750D02*
X154305000Y-143033750D01*
X140335000Y-157003750D02*
X140335000Y-143033750D01*
X154305000Y-143033750D02*
X154305000Y-157003750D01*
X154305000Y-157003750D02*
X140335000Y-157003750D01*
%TO.C,D3*%
X98580000Y-132280000D02*
X100820000Y-132280000D01*
X98580000Y-132400000D02*
X100820000Y-132400000D01*
X98580000Y-132520000D02*
X100820000Y-132520000D01*
X99700000Y-128230000D02*
X99700000Y-128880000D01*
X99700000Y-133770000D02*
X99700000Y-133120000D01*
X98580000Y-133120000D02*
X100820000Y-133120000D01*
X100820000Y-128880000D01*
X98580000Y-128880000D01*
X98580000Y-133120000D01*
%TO.C,SW2*%
X121285000Y-104933750D02*
X135255000Y-104933750D01*
X121285000Y-118903750D02*
X121285000Y-104933750D01*
X135255000Y-104933750D02*
X135255000Y-118903750D01*
X135255000Y-118903750D02*
X121285000Y-118903750D01*
%TO.C,SW5*%
X140335000Y-123983750D02*
X154305000Y-123983750D01*
X140335000Y-137953750D02*
X140335000Y-123983750D01*
X154305000Y-123983750D02*
X154305000Y-137953750D01*
X154305000Y-137953750D02*
X140335000Y-137953750D01*
%TD*%
M02*
