%TF.GenerationSoftware,KiCad,Pcbnew,9.0.3*%
%TF.CreationDate,2025-08-01T01:30:42+09:00*%
%TF.ProjectId,HackPad Schematic,4861636b-5061-4642-9053-6368656d6174,rev?*%
%TF.SameCoordinates,Original*%
%TF.FileFunction,Copper,L1,Top*%
%TF.FilePolarity,Positive*%
%FSLAX46Y46*%
G04 Gerber Fmt 4.6, Leading zero omitted, Abs format (unit mm)*
G04 Created by KiCad (PCBNEW 9.0.3) date 2025-08-01 01:30:42*
%MOMM*%
%LPD*%
G01*
G04 APERTURE LIST*
G04 Aperture macros list*
%AMRoundRect*
0 Rectangle with rounded corners*
0 $1 Rounding radius*
0 $2 $3 $4 $5 $6 $7 $8 $9 X,Y pos of 4 corners*
0 Add a 4 corners polygon primitive as box body*
4,1,4,$2,$3,$4,$5,$6,$7,$8,$9,$2,$3,0*
0 Add four circle primitives for the rounded corners*
1,1,$1+$1,$2,$3*
1,1,$1+$1,$4,$5*
1,1,$1+$1,$6,$7*
1,1,$1+$1,$8,$9*
0 Add four rect primitives between the rounded corners*
20,1,$1+$1,$2,$3,$4,$5,0*
20,1,$1+$1,$4,$5,$6,$7,0*
20,1,$1+$1,$6,$7,$8,$9,0*
20,1,$1+$1,$8,$9,$2,$3,0*%
G04 Aperture macros list end*
%TA.AperFunction,ComponentPad*%
%ADD10RoundRect,0.250000X0.550000X-0.550000X0.550000X0.550000X-0.550000X0.550000X-0.550000X-0.550000X0*%
%TD*%
%TA.AperFunction,ComponentPad*%
%ADD11C,1.600000*%
%TD*%
%TA.AperFunction,SMDPad,CuDef*%
%ADD12R,1.600000X0.850000*%
%TD*%
%TA.AperFunction,ComponentPad*%
%ADD13C,2.200000*%
%TD*%
%TA.AperFunction,SMDPad,CuDef*%
%ADD14RoundRect,0.152400X1.063600X0.609600X-1.063600X0.609600X-1.063600X-0.609600X1.063600X-0.609600X0*%
%TD*%
%TA.AperFunction,ComponentPad*%
%ADD15C,1.524000*%
%TD*%
%TA.AperFunction,SMDPad,CuDef*%
%ADD16RoundRect,0.152400X-1.063600X-0.609600X1.063600X-0.609600X1.063600X0.609600X-1.063600X0.609600X0*%
%TD*%
%TA.AperFunction,ComponentPad*%
%ADD17R,2.000000X2.000000*%
%TD*%
%TA.AperFunction,ComponentPad*%
%ADD18C,2.000000*%
%TD*%
%TA.AperFunction,ComponentPad*%
%ADD19R,3.200000X2.000000*%
%TD*%
%TA.AperFunction,ViaPad*%
%ADD20C,0.600000*%
%TD*%
%TA.AperFunction,Conductor*%
%ADD21C,0.200000*%
%TD*%
G04 APERTURE END LIST*
D10*
%TO.P,D2,1,K*%
%TO.N,Net-(D1-K)*%
X118800000Y-115710000D03*
D11*
%TO.P,D2,2,A*%
%TO.N,Net-(D2-A)*%
X118800000Y-108090000D03*
%TD*%
D12*
%TO.P,D10,1,DOUT*%
%TO.N,unconnected-(D10-DOUT-Pad1)*%
X147050000Y-89325000D03*
%TO.P,D10,2,VSS*%
%TO.N,GND*%
X147050000Y-91075000D03*
%TO.P,D10,3,DIN*%
%TO.N,Net-(D10-DIN)*%
X150550000Y-91075000D03*
%TO.P,D10,4,VDD*%
%TO.N,+5V*%
X150550000Y-89325000D03*
%TD*%
D13*
%TO.P,SW1,1,1*%
%TO.N,Net-(U1-GPIO3{slash}MOSI)*%
X111843500Y-106838750D03*
%TO.P,SW1,2,2*%
%TO.N,Net-(D1-A)*%
X105493500Y-109378750D03*
%TD*%
D10*
%TO.P,D1,1,K*%
%TO.N,Net-(D1-K)*%
X99800000Y-115728750D03*
D11*
%TO.P,D1,2,A*%
%TO.N,Net-(D1-A)*%
X99800000Y-108108750D03*
%TD*%
D12*
%TO.P,D9,1,DOUT*%
%TO.N,Net-(D10-DIN)*%
X107100000Y-88550000D03*
%TO.P,D9,2,VSS*%
%TO.N,GND*%
X107100000Y-90300000D03*
%TO.P,D9,3,DIN*%
%TO.N,Net-(D9-DIN)*%
X110600000Y-90300000D03*
%TO.P,D9,4,VDD*%
%TO.N,+5V*%
X110600000Y-88550000D03*
%TD*%
D10*
%TO.P,D5,1,K*%
%TO.N,Net-(D3-K)*%
X137800000Y-134810000D03*
D11*
%TO.P,D5,2,A*%
%TO.N,Net-(D5-A)*%
X137800000Y-127190000D03*
%TD*%
D13*
%TO.P,SW6,1,1*%
%TO.N,Net-(D6-A)*%
X111760000Y-144938750D03*
%TO.P,SW6,2,2*%
%TO.N,Net-(U1-GPIO3{slash}MOSI)*%
X105410000Y-147478750D03*
%TD*%
D10*
%TO.P,D7,1,K*%
%TO.N,Net-(D6-K)*%
X118800000Y-153620000D03*
D11*
%TO.P,D7,2,A*%
%TO.N,Net-(D7-A)*%
X118800000Y-146000000D03*
%TD*%
D13*
%TO.P,SW3,1,1*%
%TO.N,Net-(U1-GPIO3{slash}MOSI)*%
X111760000Y-125888750D03*
%TO.P,SW3,2,2*%
%TO.N,Net-(D3-A)*%
X105410000Y-128428750D03*
%TD*%
%TO.P,SW7,1,1*%
%TO.N,Net-(D7-A)*%
X130810000Y-144938750D03*
%TO.P,SW7,2,2*%
%TO.N,Net-(U1-GPIO4{slash}MISO)*%
X124460000Y-147478750D03*
%TD*%
D14*
%TO.P,U1,1,GPIO26/ADC0/A0*%
%TO.N,unconnected-(U1-GPIO26{slash}ADC0{slash}A0-Pad1)*%
X119745000Y-82680000D03*
D15*
X120580000Y-82680000D03*
D14*
%TO.P,U1,2,GPIO27/ADC1/A1*%
%TO.N,Net-(D1-K)*%
X119745000Y-85220000D03*
D15*
X120580000Y-85220000D03*
D14*
%TO.P,U1,3,GPIO28/ADC2/A2*%
%TO.N,Net-(D3-K)*%
X119745000Y-87760000D03*
D15*
X120580000Y-87760000D03*
D14*
%TO.P,U1,4,GPIO29/ADC3/A3*%
%TO.N,Net-(D6-K)*%
X119745000Y-90300000D03*
D15*
X120580000Y-90300000D03*
D14*
%TO.P,U1,5,GPIO6/SDA*%
%TO.N,Net-(D9-DIN)*%
X119745000Y-92840000D03*
D15*
X120580000Y-92840000D03*
D14*
%TO.P,U1,6,GPIO7/SCL*%
%TO.N,Net-(U1-GPIO7{slash}SCL)*%
X119745000Y-95380000D03*
D15*
X120580000Y-95380000D03*
D14*
%TO.P,U1,7,GPIO0/TX*%
%TO.N,Net-(U1-GPIO0{slash}TX)*%
X119745000Y-97920000D03*
D15*
X120580000Y-97920000D03*
%TO.P,U1,8,GPIO1/RX*%
%TO.N,Net-(U1-GPIO1{slash}RX)*%
X135820000Y-97920000D03*
D16*
X136655000Y-97920000D03*
D15*
%TO.P,U1,9,GPIO2/SCK*%
%TO.N,Net-(U1-GPIO2{slash}SCK)*%
X135820000Y-95380000D03*
D16*
X136655000Y-95380000D03*
D15*
%TO.P,U1,10,GPIO4/MISO*%
%TO.N,Net-(U1-GPIO4{slash}MISO)*%
X135820000Y-92840000D03*
D16*
X136655000Y-92840000D03*
D15*
%TO.P,U1,11,GPIO3/MOSI*%
%TO.N,Net-(U1-GPIO3{slash}MOSI)*%
X135820000Y-90300000D03*
D16*
X136655000Y-90300000D03*
D15*
%TO.P,U1,12,3V3*%
%TO.N,unconnected-(U1-3V3-Pad12)*%
X135820000Y-87760000D03*
D16*
X136655000Y-87760000D03*
D15*
%TO.P,U1,13,GND*%
%TO.N,GND*%
X135820000Y-85220000D03*
D16*
X136655000Y-85220000D03*
D15*
%TO.P,U1,14,VBUS*%
%TO.N,+5V*%
X135820000Y-82680000D03*
D16*
X136655000Y-82680000D03*
%TD*%
D10*
%TO.P,D4,1,K*%
%TO.N,Net-(D3-K)*%
X118800000Y-134710000D03*
D11*
%TO.P,D4,2,A*%
%TO.N,Net-(D4-A)*%
X118800000Y-127090000D03*
%TD*%
D17*
%TO.P,SW9,A,A*%
%TO.N,Net-(U1-GPIO0{slash}TX)*%
X140200000Y-108600000D03*
D18*
%TO.P,SW9,B,B*%
%TO.N,Net-(U1-GPIO7{slash}SCL)*%
X140200000Y-113600000D03*
%TO.P,SW9,C,C*%
%TO.N,GND*%
X140200000Y-111100000D03*
D19*
%TO.P,SW9,MP*%
%TO.N,N/C*%
X147700000Y-105500000D03*
X147700000Y-116700000D03*
D18*
%TO.P,SW9,S1,S1*%
%TO.N,Net-(U1-GPIO1{slash}RX)*%
X154700000Y-113600000D03*
%TO.P,SW9,S2,S2*%
%TO.N,GND*%
X154700000Y-108600000D03*
%TD*%
D10*
%TO.P,D6,1,K*%
%TO.N,Net-(D6-K)*%
X99700000Y-153810000D03*
D11*
%TO.P,D6,2,A*%
%TO.N,Net-(D6-A)*%
X99700000Y-146190000D03*
%TD*%
D13*
%TO.P,SW4,1,1*%
%TO.N,Net-(U1-GPIO4{slash}MISO)*%
X130810000Y-125888750D03*
%TO.P,SW4,2,2*%
%TO.N,Net-(D4-A)*%
X124460000Y-128428750D03*
%TD*%
D10*
%TO.P,D8,1,K*%
%TO.N,Net-(D6-K)*%
X137800000Y-153810000D03*
D11*
%TO.P,D8,2,A*%
%TO.N,Net-(D8-A)*%
X137800000Y-146190000D03*
%TD*%
D13*
%TO.P,SW8,1,1*%
%TO.N,Net-(D8-A)*%
X149860000Y-144938750D03*
%TO.P,SW8,2,2*%
%TO.N,Net-(U1-GPIO2{slash}SCK)*%
X143510000Y-147478750D03*
%TD*%
D10*
%TO.P,D3,1,K*%
%TO.N,Net-(D3-K)*%
X99700000Y-134810000D03*
D11*
%TO.P,D3,2,A*%
%TO.N,Net-(D3-A)*%
X99700000Y-127190000D03*
%TD*%
D13*
%TO.P,SW2,1,1*%
%TO.N,Net-(U1-GPIO4{slash}MISO)*%
X130810000Y-106838750D03*
%TO.P,SW2,2,2*%
%TO.N,Net-(D2-A)*%
X124460000Y-109378750D03*
%TD*%
%TO.P,SW5,1,1*%
%TO.N,Net-(U1-GPIO2{slash}SCK)*%
X149860000Y-125888750D03*
%TO.P,SW5,2,2*%
%TO.N,Net-(D5-A)*%
X143510000Y-128428750D03*
%TD*%
D20*
%TO.N,Net-(D1-K)*%
X113100000Y-97000000D03*
X122900000Y-90300000D03*
%TO.N,Net-(D3-K)*%
X123900000Y-105700000D03*
X120100000Y-122300000D03*
X114200000Y-93717000D03*
X116499000Y-100900000D03*
%TO.N,Net-(D6-K)*%
X114400000Y-105700000D03*
X110600000Y-97800000D03*
X114500000Y-136000000D03*
X115700000Y-90700000D03*
X111400000Y-92900000D03*
%TO.N,GND*%
X104200000Y-84800000D03*
X127800000Y-82500000D03*
X148700000Y-91201000D03*
%TO.N,Net-(U1-GPIO3{slash}MOSI)*%
X135200000Y-101600000D03*
X138200000Y-101600000D03*
%TO.N,Net-(U1-GPIO2{slash}SCK)*%
X141500000Y-96100000D03*
%TD*%
D21*
%TO.N,Net-(D1-A)*%
X99800000Y-108108750D02*
X104223500Y-108108750D01*
X104223500Y-108108750D02*
X105493500Y-109378750D01*
%TO.N,Net-(D1-K)*%
X120623310Y-94300000D02*
X122900000Y-92023310D01*
X115800000Y-94300000D02*
X120623310Y-94300000D01*
X122900000Y-92023310D02*
X122900000Y-90300000D01*
X113100000Y-97000000D02*
X115800000Y-94300000D01*
%TO.N,Net-(D2-A)*%
X120088750Y-109378750D02*
X118800000Y-108090000D01*
X124460000Y-109378750D02*
X120088750Y-109378750D01*
%TO.N,Net-(D3-K)*%
X125861000Y-107661000D02*
X123900000Y-105700000D01*
X116499000Y-100900000D02*
X116150057Y-100900000D01*
X125861000Y-116539000D02*
X125861000Y-107661000D01*
X116150057Y-100900000D02*
X112499000Y-97248943D01*
X112499000Y-97248943D02*
X112499000Y-95418000D01*
X120100000Y-122300000D02*
X125861000Y-116539000D01*
X112499000Y-95418000D02*
X114200000Y-93717000D01*
%TO.N,Net-(D3-A)*%
X99700000Y-127190000D02*
X104171250Y-127190000D01*
X104171250Y-127190000D02*
X105410000Y-128428750D01*
%TO.N,Net-(D4-A)*%
X123121250Y-127090000D02*
X124460000Y-128428750D01*
X118800000Y-127090000D02*
X123121250Y-127090000D01*
%TO.N,Net-(D5-A)*%
X139038750Y-128428750D02*
X137800000Y-127190000D01*
X143510000Y-128428750D02*
X139038750Y-128428750D01*
%TO.N,Net-(D6-K)*%
X119170000Y-153810000D02*
X137800000Y-153810000D01*
X110600000Y-93700000D02*
X111400000Y-92900000D01*
X118980000Y-153620000D02*
X119170000Y-153810000D01*
X115584500Y-106884500D02*
X114400000Y-105700000D01*
X115700000Y-90700000D02*
X116100000Y-90300000D01*
X116100000Y-90300000D02*
X120580000Y-90300000D01*
X118610000Y-153810000D02*
X118800000Y-153620000D01*
X99700000Y-153810000D02*
X118610000Y-153810000D01*
X115584500Y-134915500D02*
X115584500Y-106884500D01*
X114500000Y-136000000D02*
X115584500Y-134915500D01*
X118800000Y-153620000D02*
X118980000Y-153620000D01*
X110600000Y-97800000D02*
X110600000Y-93700000D01*
%TO.N,Net-(D6-A)*%
X105929924Y-148940140D02*
X104759860Y-148940140D01*
X111760000Y-144938750D02*
X109931314Y-144938750D01*
X104759860Y-148940140D02*
X102009720Y-146190000D01*
X109931314Y-144938750D02*
X105929924Y-148940140D01*
X102009720Y-146190000D02*
X99700000Y-146190000D01*
%TO.N,Net-(D7-A)*%
X125040314Y-148879750D02*
X123749470Y-148879750D01*
X120869720Y-146000000D02*
X118800000Y-146000000D01*
X128981314Y-144938750D02*
X125040314Y-148879750D01*
X123749470Y-148879750D02*
X120869720Y-146000000D01*
X130810000Y-144938750D02*
X128981314Y-144938750D01*
%TO.N,Net-(D8-A)*%
X148031314Y-144938750D02*
X144090314Y-148879750D01*
X149860000Y-144938750D02*
X148031314Y-144938750D01*
X142799470Y-148879750D02*
X140109720Y-146190000D01*
X140109720Y-146190000D02*
X137800000Y-146190000D01*
X144090314Y-148879750D02*
X142799470Y-148879750D01*
%TO.N,Net-(D10-DIN)*%
X145949000Y-91801000D02*
X149824000Y-91801000D01*
X149824000Y-91801000D02*
X150550000Y-91075000D01*
X107100000Y-88550000D02*
X107826000Y-89276000D01*
X113409374Y-89237000D02*
X143385000Y-89237000D01*
X143385000Y-89237000D02*
X145949000Y-91801000D01*
X107826000Y-89276000D02*
X113370374Y-89276000D01*
X113370374Y-89276000D02*
X113409374Y-89237000D01*
%TO.N,Net-(D9-DIN)*%
X113140000Y-92840000D02*
X110600000Y-90300000D01*
X120580000Y-92840000D02*
X113140000Y-92840000D01*
%TO.N,+5V*%
X117533000Y-81617000D02*
X110600000Y-88550000D01*
X135820000Y-82680000D02*
X134757000Y-81617000D01*
X134757000Y-81617000D02*
X117533000Y-81617000D01*
X143905000Y-82680000D02*
X150550000Y-89325000D01*
X135820000Y-82680000D02*
X143905000Y-82680000D01*
%TO.N,GND*%
X141195000Y-85220000D02*
X135820000Y-85220000D01*
X148700000Y-91201000D02*
X147176000Y-91201000D01*
X130520000Y-85220000D02*
X127800000Y-82500000D01*
X135820000Y-85220000D02*
X130520000Y-85220000D01*
X147050000Y-91075000D02*
X141195000Y-85220000D01*
X104200000Y-87400000D02*
X107100000Y-90300000D01*
X147176000Y-91201000D02*
X147050000Y-91075000D01*
X104200000Y-84800000D02*
X104200000Y-87400000D01*
%TO.N,Net-(U1-GPIO3{slash}MOSI)*%
X111760000Y-106922250D02*
X111843500Y-106838750D01*
X105410000Y-147478750D02*
X111760000Y-141128750D01*
X111760000Y-141128750D02*
X111760000Y-125888750D01*
X140500000Y-99300000D02*
X140500000Y-91800000D01*
X138200000Y-101600000D02*
X140500000Y-99300000D01*
X111843500Y-106838750D02*
X117082250Y-101600000D01*
X117082250Y-101600000D02*
X135200000Y-101600000D01*
X140500000Y-91800000D02*
X139000000Y-90300000D01*
X111760000Y-125888750D02*
X111760000Y-106922250D01*
X139000000Y-90300000D02*
X135820000Y-90300000D01*
%TO.N,Net-(U1-GPIO4{slash}MISO)*%
X139100000Y-98548750D02*
X139100000Y-95042370D01*
X136897630Y-92840000D02*
X135820000Y-92840000D01*
X124460000Y-147478750D02*
X130810000Y-141128750D01*
X130810000Y-106838750D02*
X139100000Y-98548750D01*
X139100000Y-95042370D02*
X136897630Y-92840000D01*
X130810000Y-141128750D02*
X130810000Y-125888750D01*
X130810000Y-125888750D02*
X130810000Y-106838750D01*
%TO.N,Net-(U1-GPIO2{slash}SCK)*%
X149860000Y-125888750D02*
X157700000Y-118048750D01*
X144500000Y-99100000D02*
X141500000Y-96100000D01*
X143510000Y-147478750D02*
X149860000Y-141128750D01*
X157700000Y-99100000D02*
X144500000Y-99100000D01*
X149860000Y-141128750D02*
X149860000Y-125888750D01*
X157700000Y-118048750D02*
X157700000Y-99100000D01*
%TO.N,Net-(U1-GPIO1{slash}RX)*%
X135379690Y-91777000D02*
X134757000Y-92399690D01*
X149350057Y-113600000D02*
X137599000Y-101848943D01*
X134757000Y-92399690D02*
X134757000Y-96857000D01*
X139501000Y-93367374D02*
X137910626Y-91777000D01*
X137910626Y-91777000D02*
X135379690Y-91777000D01*
X137599000Y-101848943D02*
X137599000Y-100616850D01*
X134757000Y-96857000D02*
X135820000Y-97920000D01*
X154700000Y-113600000D02*
X149350057Y-113600000D01*
X139501000Y-98714850D02*
X139501000Y-93367374D01*
X137599000Y-100616850D02*
X139501000Y-98714850D01*
%TD*%
M02*
