M48
; DRILL file {KiCad 9.0.3} date 2025-08-01T01:30:26+0900
; FORMAT={-:-/ absolute / metric / decimal}
; #@! TF.CreationDate,2025-08-01T01:30:26+09:00
; #@! TF.GenerationSoftware,Kicad,Pcbnew,9.0.3
; #@! TF.FileFunction,NonPlated,1,2,NPTH
FMAT,2
METRIC
; #@! TA.AperFunction,NonPlated,NPTH,ComponentDrill
T1C1.700
; #@! TA.AperFunction,NonPlated,NPTH,ComponentDrill
T2C4.000
%
G90
G05
T1
X104.14Y-130.969
X104.14Y-150.019
X104.224Y-111.919
X114.3Y-130.969
X114.3Y-150.019
X114.383Y-111.919
X123.19Y-111.919
X123.19Y-130.969
X123.19Y-150.019
X133.35Y-111.919
X133.35Y-130.969
X133.35Y-150.019
X142.24Y-130.969
X142.24Y-150.019
X152.4Y-130.969
X152.4Y-150.019
T2
X109.22Y-130.969
X109.22Y-150.019
X109.303Y-111.919
X128.27Y-111.919
X128.27Y-130.969
X128.27Y-150.019
X147.32Y-130.969
X147.32Y-150.019
M30
