M48
; DRILL file {KiCad 9.0.3} date 2025-08-01T01:30:26+0900
; FORMAT={-:-/ absolute / metric / decimal}
; #@! TF.CreationDate,2025-08-01T01:30:26+09:00
; #@! TF.GenerationSoftware,Kicad,Pcbnew,9.0.3
; #@! TF.FileFunction,Plated,1,2,PTH
FMAT,2
METRIC
; #@! TA.AperFunction,Plated,PTH,ViaDrill
T1C0.300
; #@! TA.AperFunction,Plated,PTH,ComponentDrill
T2C0.800
; #@! TA.AperFunction,Plated,PTH,ComponentDrill
T3C0.889
; #@! TA.AperFunction,Plated,PTH,ComponentDrill
T4C1.000
; #@! TA.AperFunction,Plated,PTH,ComponentDrill
T5C1.500
%
G90
G05
T1
X104.2Y-84.8
X110.6Y-97.8
X111.4Y-92.9
X113.1Y-97.0
X114.2Y-93.717
X114.4Y-105.7
X114.5Y-136.0
X115.7Y-90.7
X116.499Y-100.9
X120.1Y-122.3
X122.9Y-90.3
X123.9Y-105.7
X127.8Y-82.5
X135.2Y-101.6
X138.2Y-101.6
X141.5Y-96.1
X148.7Y-91.201
T2
X99.7Y-127.19
X99.7Y-134.81
X99.7Y-146.19
X99.7Y-153.81
X99.8Y-108.109
X99.8Y-115.729
X118.8Y-108.09
X118.8Y-115.71
X118.8Y-127.09
X118.8Y-134.71
X118.8Y-146.0
X118.8Y-153.62
X137.8Y-127.19
X137.8Y-134.81
X137.8Y-146.19
X137.8Y-153.81
T3
X120.58Y-82.68
X120.58Y-85.22
X120.58Y-87.76
X120.58Y-90.3
X120.58Y-92.84
X120.58Y-95.38
X120.58Y-97.92
X135.82Y-82.68
X135.82Y-85.22
X135.82Y-87.76
X135.82Y-90.3
X135.82Y-92.84
X135.82Y-95.38
X135.82Y-97.92
T4
X140.2Y-108.6
X140.2Y-111.1
X140.2Y-113.6
X154.7Y-108.6
X154.7Y-113.6
T5
X105.41Y-128.429
X105.41Y-147.479
X105.493Y-109.379
X111.76Y-125.889
X111.76Y-144.939
X111.843Y-106.839
X124.46Y-109.379
X124.46Y-128.429
X124.46Y-147.479
X130.81Y-106.839
X130.81Y-125.889
X130.81Y-144.939
X143.51Y-128.429
X143.51Y-147.479
X149.86Y-125.889
X149.86Y-144.939
T5
G00X147.05Y-105.5
M15
G01X148.35Y-105.5
M16
G05
G00X147.05Y-116.7
M15
G01X148.35Y-116.7
M16
G05
M30
